<?xml version="1.0" standalone="no"?>
<!DOCTYPE svg PUBLIC "-//W3C//DTD SVG 20010904//EN"
 "http://www.w3.org/TR/2001/REC-SVG-20010904/DTD/svg10.dtd">
<svg version="1.0" xmlns="http://www.w3.org/2000/svg"
 width="723.000000pt" height="720.000000pt" viewBox="0 0 723.000000 720.000000"
 preserveAspectRatio="xMidYMid meet">

<g transform="translate(0.000000,720.000000) scale(0.100000,-0.100000)"
fill="#000000" stroke="none">
<path d="M1833 7183 c-4 -10 -17 -29 -30 -43 -13 -14 -23 -30 -23 -37 0 -7 -4
-13 -10 -13 -5 0 -10 -12 -10 -26 0 -14 -4 -23 -9 -20 -5 3 -11 -17 -15 -44
-4 -28 -11 -50 -16 -50 -6 0 -10 -7 -10 -15 0 -8 -6 -15 -12 -15 -17 -1 -51
-47 -44 -59 3 -5 -1 -12 -10 -15 -10 -4 -14 -12 -10 -23 4 -9 3 -19 -2 -22 -5
-3 -12 -16 -16 -28 -5 -17 -3 -23 8 -23 8 0 18 -5 22 -11 4 -8 0 -9 -15 -4
-12 4 -21 2 -21 -4 0 -6 5 -11 10 -11 14 0 12 -54 -2 -68 -9 -9 -8 -12 4 -12
9 0 18 8 21 18 4 16 4 16 12 -2 5 -11 3 -21 -5 -26 -15 -9 -40 -75 -40 -107 0
-13 -4 -23 -10 -23 -5 0 -7 -14 -5 -32 2 -18 -1 -38 -7 -45 -6 -8 -10 -37 -9
-65 1 -28 -3 -54 -8 -58 -12 -7 -41 -114 -41 -152 0 -15 -3 -28 -7 -28 -5 0
-16 -19 -27 -43 -10 -23 -22 -50 -27 -59 -5 -10 -9 -38 -9 -64 0 -25 -5 -55
-11 -67 -9 -16 -9 -22 0 -25 6 -2 11 -8 11 -13 0 -6 -4 -8 -9 -5 -9 6 -21 -39
-22 -88 0 -26 -2 -28 -9 -11 -8 18 -9 17 -9 -7 -1 -16 -5 -28 -11 -28 -5 0
-10 -25 -10 -55 0 -56 -13 -73 -24 -32 -3 12 -6 37 -6 56 0 28 -2 32 -15 21
-11 -9 -12 -17 -4 -31 5 -11 8 -23 6 -27 -3 -4 -8 -28 -11 -54 -5 -33 -3 -48
5 -48 8 0 8 -4 1 -12 -12 -16 -14 -98 -2 -98 15 0 21 18 8 23 -7 3 -3 4 10 4
18 -1 22 -6 20 -27 -2 -20 -9 -26 -35 -28 -30 -3 -33 -6 -33 -38 0 -33 13 -46
23 -21 3 6 6 -4 6 -24 1 -21 -5 -42 -14 -49 -8 -7 -15 -17 -15 -22 0 -6 7 -5
16 3 14 11 15 6 10 -46 -3 -34 -11 -64 -19 -70 -7 -5 -14 -17 -15 -25 -1 -8
-3 -37 -6 -63 -2 -27 -7 -52 -12 -56 -5 -4 -43 -5 -85 -2 -42 3 -83 5 -91 3
-13 -2 -16 -44 -22 -273 -4 -149 -4 -274 -1 -277 3 -4 25 -14 48 -22 30 -11
43 -22 45 -38 2 -12 7 -20 12 -17 5 3 13 -9 18 -27 6 -23 15 -34 30 -36 13 -2
22 2 23 10 3 35 -3 270 -7 321 -4 35 -2 57 4 57 7 0 9 22 6 58 -3 40 -2 51 5
37 5 -11 10 -43 10 -72 1 -28 6 -55 12 -59 7 -4 7 -9 1 -13 -6 -4 -4 -25 6
-56 12 -41 16 -47 23 -30 4 11 8 34 8 51 1 20 6 31 16 31 8 0 15 -7 15 -14 0
-8 4 -11 10 -8 6 4 10 -9 10 -32 0 -21 7 -49 16 -61 12 -17 12 -22 2 -22 -8 0
-9 -3 -3 -8 6 -4 19 -23 29 -43 15 -29 18 -50 14 -118 -3 -45 -10 -87 -16 -93
-14 -14 -16 -58 -3 -58 15 0 21 -29 8 -42 -7 -7 -16 -21 -20 -30 -5 -15 -3
-16 18 -6 15 7 22 16 18 27 -4 14 -3 14 6 1 14 -19 14 -67 1 -75 -5 -3 -10
-26 -10 -51 0 -38 3 -45 17 -42 10 2 19 12 21 22 3 11 0 16 -7 12 -7 -5 -11 2
-11 18 0 14 5 26 10 26 6 0 10 10 10 23 1 12 12 36 25 52 23 28 25 29 25 8 0
-12 -7 -26 -16 -31 -14 -8 -15 -19 -8 -78 4 -38 8 -73 9 -79 0 -5 4 -13 8 -16
5 -3 1 -13 -7 -22 -9 -8 -13 -23 -10 -31 4 -10 0 -18 -10 -22 -10 -4 -13 -11
-8 -18 13 -17 2 -98 -13 -93 -6 3 -18 1 -26 -4 -8 -5 -9 -9 -2 -9 14 0 15 -89
1 -107 -5 -6 -12 -44 -15 -85 -3 -40 -11 -80 -18 -88 -15 -17 -35 -116 -35
-171 0 -21 -5 -41 -10 -44 -6 -3 -10 -15 -10 -26 0 -10 -4 -19 -10 -19 -5 0
-9 -17 -9 -37 1 -21 -2 -66 -6 -100 -6 -48 -12 -62 -26 -66 -20 -5 -26 -32 -9
-42 15 -9 12 -25 -5 -25 -14 0 -21 -28 -17 -73 1 -10 -2 -16 -7 -13 -5 3 -11
-1 -15 -9 -6 -17 -52 -20 -91 -5 -34 13 -78 3 -71 -16 3 -8 0 -14 -7 -14 -19
0 -36 21 -30 36 3 8 2 14 -2 14 -10 0 -44 -43 -45 -57 0 -6 -6 -14 -12 -16
-10 -4 -10 -6 0 -6 18 -1 15 -81 -4 -102 -9 -10 -14 -23 -12 -30 7 -20 58 43
58 72 0 33 39 69 74 69 23 0 26 -3 17 -13 -6 -8 -7 -17 -3 -22 4 -4 -3 -3 -15
3 -17 9 -22 9 -27 -3 -7 -20 21 -20 67 0 51 21 77 19 77 -4 0 -11 -4 -23 -10
-26 -5 -3 -10 -15 -10 -26 0 -10 -7 -19 -15 -19 -8 0 -15 -5 -15 -11 0 -5 -4
-7 -10 -4 -5 3 -10 1 -10 -5 0 -19 -43 -50 -62 -44 -11 3 -18 -2 -20 -17 -2
-13 -17 -30 -38 -40 -19 -11 -35 -27 -35 -37 0 -22 -24 -48 -52 -56 -13 -4
-23 -14 -23 -21 0 -8 -12 -20 -27 -27 -31 -15 -42 -38 -19 -38 9 0 16 -4 16
-9 0 -5 3 -18 7 -28 3 -10 3 -15 -1 -11 -15 13 -46 -26 -46 -59 0 -18 -4 -33
-10 -33 -5 0 -10 -18 -10 -40 0 -23 5 -40 11 -40 7 0 10 12 7 30 -3 19 0 31
10 35 11 4 13 -1 10 -20 -3 -13 -1 -22 3 -19 5 3 9 -4 9 -15 0 -33 19 -64 55
-91 27 -20 35 -32 35 -58 0 -20 -4 -31 -10 -27 -5 3 -10 -3 -10 -13 0 -11 -7
-25 -15 -32 -8 -7 -15 -20 -15 -29 0 -10 -9 -27 -20 -38 -10 -12 -22 -33 -26
-47 -3 -14 -10 -26 -15 -26 -5 0 -9 -7 -9 -15 0 -8 -4 -15 -9 -15 -5 0 -13 -9
-16 -20 -3 -11 -14 -20 -24 -20 -14 0 -20 -11 -24 -52 -4 -28 -10 -54 -14 -57
-10 -7 -31 -40 -39 -61 -20 -49 -36 -80 -44 -85 -6 -3 -10 -15 -10 -25 0 -10
-10 -36 -22 -56 -24 -41 -37 -106 -44 -224 -3 -41 -11 -88 -18 -105 -8 -16
-20 -43 -27 -60 -8 -16 -20 -34 -26 -38 -7 -4 -13 -14 -13 -21 0 -7 -9 -21
-20 -31 -11 -10 -20 -30 -20 -44 1 -35 -11 -95 -20 -101 -14 -11 -40 -74 -40
-101 0 -15 -3 -29 -8 -31 -9 -4 -42 -75 -42 -92 0 -7 -11 -25 -25 -40 -14 -15
-25 -38 -25 -51 0 -13 -11 -44 -25 -69 -14 -25 -25 -52 -25 -60 0 -9 -3 -16
-7 -16 -5 0 -17 -19 -27 -43 -54 -118 -99 -208 -107 -213 -5 -3 -9 -12 -9 -20
0 -12 149 -14 1101 -14 1016 0 1103 1 1114 17 10 13 9 22 -1 41 -9 18 -10 31
-3 44 9 17 5 22 -14 19 -4 -1 -4 17 -1 39 4 25 2 45 -5 54 -9 11 -8 15 4 20
10 4 15 -1 16 -17 0 -12 3 -16 6 -9 2 6 15 12 28 12 13 0 31 7 40 17 14 14 18
14 26 2 7 -12 9 -12 9 1 0 21 48 48 98 56 23 4 42 12 42 19 0 7 6 18 14 24 20
17 8 58 -24 81 -15 11 -31 31 -34 45 -4 14 -11 23 -17 19 -6 -3 -8 -12 -5 -20
3 -7 1 -16 -4 -19 -6 -4 -10 14 -10 42 1 44 2 47 15 29 8 -11 16 -17 16 -13 1
4 2 10 3 15 1 4 5 12 9 18 4 7 0 14 -8 17 -23 9 1 70 25 62 10 -3 20 0 23 9 4
11 1 13 -11 9 -12 -4 -10 0 6 16 13 13 29 20 37 17 8 -3 17 -1 20 4 4 6 -1 10
-9 10 -10 0 -13 6 -10 15 7 18 -7 20 -24 3 -9 -9 -12 -5 -12 21 0 22 8 40 22
53 19 16 20 21 8 28 -16 10 -15 11 23 28 20 8 27 17 23 28 -3 8 1 17 9 20 8 4
15 13 15 21 0 8 5 11 10 8 6 -3 10 -15 10 -26 0 -10 5 -19 10 -19 6 0 10 14
10 30 0 17 6 39 13 50 12 20 5 32 -27 43 -5 1 -5 13 -1 26 5 16 13 21 25 18
23 -6 36 21 14 30 -12 4 -14 19 -10 81 3 41 10 80 15 85 16 16 14 60 -1 51 -9
-5 -9 -3 1 9 7 9 17 14 22 11 5 -3 9 11 9 30 0 23 -4 34 -12 32 -7 -1 -10 -1
-7 1 4 2 5 13 2 24 -6 23 14 76 39 101 17 17 18 16 18 -23 0 -22 -4 -38 -8
-35 -15 9 -37 -43 -24 -56 13 -13 42 12 42 36 0 9 5 16 11 16 11 0 6 -120 -6
-140 -3 -5 1 -10 9 -10 11 0 16 -10 16 -32 0 -25 3 -29 10 -18 5 8 10 27 10
42 0 33 24 129 40 158 6 12 9 28 6 36 -3 8 -1 14 5 14 15 0 33 -21 50 -57 7
-18 17 -33 20 -33 3 0 62 -55 130 -122 69 -68 144 -138 167 -156 61 -48 152
-90 229 -107 89 -19 335 -36 347 -24 14 12 46 11 46 -2 0 -5 -4 -7 -10 -4 -5
3 -10 1 -10 -4 0 -14 17 -14 26 0 3 6 15 9 25 6 12 -3 19 0 19 8 0 17 13 26
50 31 34 6 38 1 51 -73 6 -32 16 -61 22 -65 9 -6 9 -8 0 -8 -7 0 -13 -7 -13
-15 0 -8 7 -15 16 -15 9 0 14 -7 12 -18 -1 -9 1 -23 5 -30 5 -7 3 -12 -7 -12
-8 0 -22 -10 -30 -22 -18 -25 -21 -42 -7 -34 16 10 19 -32 5 -71 -7 -21 -13
-48 -14 -60 0 -12 -5 -25 -11 -28 -6 -4 -8 -13 -5 -20 3 -8 -2 -29 -11 -46
-13 -26 -17 -67 -17 -201 -1 -92 -4 -168 -8 -168 -5 0 -8 -7 -8 -16 0 -8 5
-12 10 -9 13 8 51 -16 91 -58 l31 -32 1544 -3 1544 -2 0 1305 c0 1236 -1 1305
-17 1306 -10 1 -24 1 -32 -1 -15 -2 -73 20 -81 31 -3 4 -28 2 -57 -4 -48 -10
-54 -9 -71 11 -11 12 -22 19 -25 16 -3 -3 -31 -8 -62 -10 -56 -4 -56 -4 -70
30 -19 45 -33 53 -44 24 -6 -13 -10 -17 -10 -9 -2 26 -43 51 -85 52 -23 0 -50
5 -61 10 -15 7 -8 8 23 4 31 -4 41 -2 37 6 -5 7 -39 10 -94 9 -155 -4 -251 0
-251 10 0 6 64 10 173 10 94 0 178 4 186 9 11 7 13 46 7 227 -4 120 -8 219 -9
220 -1 2 -70 3 -152 4 -191 3 -217 9 -231 54 -13 44 -6 57 32 54 16 -1 61 0
99 1 l70 3 -98 16 c-81 13 -96 19 -91 32 9 23 10 45 1 47 -4 1 -14 9 -22 17
-11 10 -32 13 -79 10 -63 -4 -126 9 -112 23 4 4 46 8 94 9 48 1 97 3 109 3 22
1 23 4 16 64 -8 76 -6 409 2 448 7 33 -12 76 -27 61 -5 -5 -10 -98 -11 -221
-2 -194 -3 -211 -19 -211 -23 0 -23 -16 -1 -29 16 -8 15 -12 -11 -36 -16 -14
-35 -24 -43 -21 -8 3 -11 1 -8 -4 3 -6 1 -10 -5 -10 -7 0 -10 -7 -6 -15 3 -8
1 -15 -4 -15 -6 0 -11 7 -11 15 -1 8 -3 20 -4 25 -1 6 -3 28 -4 49 0 22 -8 47
-17 55 -8 9 -13 20 -10 25 7 11 -32 91 -44 91 -6 0 -10 23 -10 50 0 37 -5 55
-20 70 -13 13 -25 48 -34 102 -8 46 -22 103 -30 127 -26 71 -17 165 13 147 6
-4 11 -13 11 -19 0 -7 9 -18 20 -25 17 -11 20 -10 20 7 0 11 -6 24 -13 28 -12
7 -37 83 -37 112 0 6 7 11 17 11 9 0 13 -3 10 -6 -3 -4 -2 -16 4 -26 9 -16 13
-17 22 -8 9 10 9 14 0 17 -7 2 -9 11 -6 19 7 20 -6 84 -17 84 -6 0 -10 -7 -10
-15 0 -8 -5 -15 -11 -15 -7 0 -8 14 -4 40 6 34 3 44 -16 64 -20 20 -23 35 -25
112 -1 50 -9 110 -18 136 -9 27 -14 58 -10 73 3 14 2 25 -3 25 -11 0 -11 95 0
106 4 4 7 2 7 -4 0 -7 5 -12 10 -12 6 0 8 11 4 25 -4 15 -2 25 5 25 6 0 14
-12 17 -27 7 -25 8 -25 15 -8 4 11 8 39 8 63 1 35 -2 42 -19 42 -10 0 -24 9
-30 20 -6 11 -18 20 -26 20 -8 0 -12 5 -9 10 4 6 2 17 -4 24 -15 17 23 68 44
59 8 -3 15 -2 15 2 0 9 -42 69 -52 73 -11 5 -10 32 2 32 5 0 6 8 3 17 -4 11
-8 13 -11 5 -6 -19 -22 -4 -22 21 0 12 -7 31 -15 41 -20 27 -19 35 5 33 16 -1
20 -8 20 -39 0 -21 5 -38 11 -38 6 0 8 16 4 44 -6 38 -4 46 13 55 14 7 19 19
17 37 -2 19 3 28 21 34 13 5 31 7 39 4 8 -4 21 -2 28 4 6 5 25 12 40 16 15 4
25 11 22 16 -3 6 0 10 8 10 8 0 17 9 20 20 4 15 14 20 36 20 18 0 48 7 68 15
19 8 44 15 54 15 22 0 24 11 7 28 -16 16 -55 15 -61 -2 -5 -12 -94 -39 -134
-41 -7 0 -20 -8 -30 -18 -14 -14 -15 -18 -3 -15 8 2 15 -4 15 -12 0 -11 -16
-14 -70 -15 -56 0 -70 3 -70 15 0 9 13 17 34 20 50 7 49 26 -1 25 -58 -2 -78
4 -71 21 3 8 -1 14 -9 14 -27 0 -68 25 -65 40 1 8 -2 15 -8 16 -12 1 -45 13
-64 22 -7 4 -21 32 -31 62 -10 30 -27 74 -39 97 -11 23 -21 49 -21 57 0 8 -11
28 -25 44 -17 21 -25 42 -25 69 0 21 -5 44 -12 51 -13 13 -38 79 -38 103 0 9
-6 22 -14 28 -8 7 -18 27 -22 44 -3 18 -10 37 -14 42 -3 6 -15 37 -25 70 -10
33 -29 81 -41 106 -13 25 -22 60 -21 77 2 27 6 32 37 36 121 19 462 36 1055
52 55 1 98 6 95 11 -6 9 -349 5 -685 -8 -121 -5 -291 -11 -379 -13 -87 -3
-161 -7 -163 -10 -3 -2 -16 0 -29 6 -16 7 -21 15 -15 22 15 18 1 64 -21 69
-11 3 -17 10 -14 16 4 5 2 12 -3 16 -6 3 -8 12 -4 20 3 8 1 15 -4 15 -6 0 -22
11 -37 25 -20 19 -25 30 -20 50 5 21 3 25 -16 25 -11 0 -19 4 -16 9 3 5 -2 15
-11 22 -9 8 -22 29 -30 47 -17 41 -43 43 -43 3 0 -17 5 -33 12 -37 8 -5 6 -10
-8 -14 -29 -11 -43 -1 -66 46 -11 24 -24 44 -28 44 -4 0 -11 17 -14 38 -14 78
-2 72 -162 72 l-144 0 0 -26 c0 -15 -4 -23 -10 -19 -6 4 -8 15 -5 26 6 17 1
19 -62 18 -37 0 -63 -3 -56 -5 16 -7 5 -34 -13 -34 -8 0 -14 9 -14 20 0 19 -9
19 -490 20 -269 0 -490 -3 -490 -7 1 -20 72 -83 107 -94 21 -7 49 -21 63 -30
14 -9 34 -18 45 -20 11 -3 21 -14 23 -26 2 -12 12 -25 22 -28 11 -3 19 -14 18
-23 -3 -30 23 -84 38 -78 17 6 21 -22 29 -174 5 -108 1 -178 -25 -425 -5 -55
-10 -149 -11 -210 -2 -114 -10 -148 -33 -139 -8 3 -17 1 -21 -5 -3 -6 -15 -11
-26 -11 -24 0 -51 -56 -42 -89 4 -15 -2 -30 -17 -46 -12 -13 -19 -29 -15 -35
5 -8 11 -6 19 5 7 9 27 18 46 20 19 2 40 4 45 6 22 6 66 -25 71 -50 3 -14 9
-33 14 -42 12 -22 -7 -39 -44 -40 l-31 -1 30 -7 c16 -3 31 -13 33 -22 4 -20
-32 -36 -104 -44 -61 -8 -172 -58 -181 -83 -3 -7 -1 -18 6 -25 16 -16 14 -48
-3 -41 -9 4 -20 -6 -30 -25 -20 -38 -21 -71 -1 -71 8 0 15 4 15 10 0 17 74 77
115 93 29 12 110 27 145 27 35 0 40 -3 40 -23 0 -13 -6 -29 -12 -36 -10 -11
-10 -14 0 -18 6 -3 12 -11 12 -19 0 -9 -4 -12 -10 -9 -13 8 -13 -16 1 -35 9
-13 10 -12 5 3 -4 13 0 17 20 17 14 0 23 4 20 9 -8 12 48 0 56 -13 4 -6 7 -34
7 -63 -1 -45 -4 -52 -23 -55 -25 -4 -25 -21 1 -27 29 -5 34 -21 31 -95 -2 -41
1 -71 8 -73 10 -3 34 51 34 78 0 16 35 41 44 32 3 -4 6 -19 6 -34 0 -39 25
-28 40 17 15 46 51 42 63 -7 25 -98 30 -149 19 -171 -6 -13 -14 -68 -17 -122
-5 -74 -12 -106 -26 -125 -10 -14 -23 -50 -29 -80 -5 -30 -18 -59 -27 -66 -9
-7 -18 -29 -19 -51 -2 -21 -12 -50 -22 -64 -11 -14 -23 -40 -26 -57 -4 -18
-15 -42 -25 -55 -10 -13 -22 -38 -25 -55 -4 -18 -12 -33 -17 -33 -14 0 -41
-60 -35 -77 9 -22 27 -5 67 64 19 31 44 66 57 78 12 12 22 30 22 39 0 9 9 25
20 36 11 11 20 24 20 28 0 4 15 24 33 44 17 20 45 57 60 82 16 25 33 46 39 46
5 0 22 9 36 20 72 55 92 75 92 92 0 10 5 18 11 18 14 0 59 47 60 63 1 7 4 1 8
-13 5 -18 2 -31 -11 -44 -10 -11 -18 -32 -18 -48 0 -15 -8 -36 -17 -46 -23
-24 -46 -63 -40 -68 7 -7 57 15 57 25 0 6 15 27 34 47 l35 38 17 -36 c14 -31
15 -41 4 -67 -7 -17 -17 -31 -22 -31 -5 0 -7 -4 -3 -10 3 -5 13 -6 22 -3 13 5
15 3 8 -13 -4 -10 -11 -35 -16 -54 -4 -19 -13 -55 -19 -79 -6 -24 -13 -73 -15
-108 -2 -36 -8 -70 -13 -76 -6 -7 -15 -39 -21 -72 -17 -101 -28 -148 -45 -200
-9 -27 -16 -69 -16 -92 0 -23 -4 -44 -9 -47 -4 -3 -14 -40 -20 -83 -7 -43 -17
-94 -24 -113 -6 -19 -10 -40 -9 -47 1 -6 -2 -14 -8 -18 -5 -3 -10 -18 -10 -33
0 -15 -9 -47 -20 -71 -11 -24 -20 -51 -20 -61 0 -9 -10 -30 -22 -46 -13 -16
-22 -29 -20 -29 10 -1 -22 -61 -38 -72 -11 -8 -20 -21 -20 -29 0 -8 -4 -14 -9
-14 -5 0 -13 -9 -16 -21 -4 -11 -18 -24 -31 -29 -13 -5 -24 -14 -24 -20 0 -16
60 -12 66 5 9 21 109 69 129 61 12 -4 15 -13 10 -35 -8 -37 8 -48 35 -21 11
11 22 20 23 20 9 0 -12 -91 -31 -134 -12 -27 -22 -58 -22 -70 0 -11 -7 -59
-17 -106 -12 -62 -24 -94 -45 -120 -18 -22 -28 -46 -28 -67 0 -17 -4 -43 -10
-57 -5 -14 -10 -42 -12 -62 -1 -22 -9 -39 -20 -45 -10 -5 -17 -17 -16 -27 3
-40 -3 -72 -13 -72 -7 0 -9 10 -7 24 4 19 1 22 -16 18 -11 -3 -15 -7 -8 -10
16 -5 15 -64 -1 -87 -11 -14 -22 -17 -45 -12 -27 6 -32 4 -32 -13 0 -11 -6
-20 -13 -20 -21 0 -42 -33 -39 -59 2 -15 -3 -28 -12 -33 -23 -13 -20 -27 9
-38 23 -9 25 -14 23 -64 -2 -44 -5 -53 -15 -44 -9 7 -13 7 -13 0 0 -6 5 -14
10 -17 6 -3 10 -25 10 -48 l-1 -42 -14 30 c-8 18 -14 23 -14 14 -1 -9 -8 -19
-16 -23 -8 -3 -15 -14 -15 -24 0 -10 -11 -29 -25 -42 -21 -20 -27 -21 -41 -9
-16 13 -17 12 -12 -8 4 -13 0 -27 -8 -34 -7 -6 -16 -21 -20 -32 -3 -12 -16
-32 -27 -44 -26 -29 -29 -73 -6 -73 10 0 21 9 24 20 9 27 22 25 29 -5 8 -33
22 -25 30 18 3 19 13 42 21 53 10 12 14 14 11 4 -2 -8 -7 -39 -11 -69 -5 -46
-4 -53 9 -48 22 9 20 -5 -3 -25 -17 -14 -18 -22 -10 -59 11 -47 6 -71 -13 -67
-9 2 -13 -10 -14 -37 0 -54 -12 -75 -39 -75 -13 0 -35 -4 -49 -10 -41 -15
-217 -16 -254 -1 -17 7 -32 17 -32 22 0 5 -11 7 -24 3 -16 -4 -31 2 -49 18
-23 20 -25 25 -13 41 13 17 46 15 46 -3 0 -4 21 -2 48 4 47 12 47 13 50 57 2
25 -2 58 -9 75 -11 28 -12 28 -18 7 -5 -17 -10 -20 -21 -13 -8 5 -18 10 -22
10 -13 0 -9 -48 4 -52 7 -3 9 -12 5 -22 -7 -17 -9 -17 -27 3 -10 13 -16 30
-13 39 4 15 3 15 -6 2 -9 -13 -12 -12 -25 5 -8 11 -18 31 -21 45 -4 13 -15 30
-26 38 -10 7 -19 21 -19 31 0 9 -5 22 -12 29 -6 6 -8 15 -4 19 4 4 11 1 16 -7
7 -11 10 -8 10 12 0 20 4 26 15 22 10 -4 14 -1 11 7 -3 8 3 30 14 49 48 88 46
81 22 100 -26 22 -27 30 -7 56 15 18 16 17 10 -14 -5 -25 -3 -32 9 -32 10 0
19 12 23 30 5 29 13 34 41 31 10 -2 12 11 8 58 -4 42 -2 61 7 64 9 3 8 11 -3
33 -15 29 -16 124 -1 124 4 0 15 -15 24 -32 l18 -33 -6 35 c-3 19 -13 43 -23
55 -21 24 -52 90 -52 110 0 8 -6 15 -14 15 -34 0 -100 129 -111 215 -1 11 -3
23 -4 28 0 4 -10 7 -21 7 -16 0 -20 7 -21 33 0 17 -3 26 -6 20 -3 -8 -15 -3
-35 16 -17 16 -49 34 -72 41 -60 18 -135 63 -188 115 -27 25 -48 48 -48 50 0
3 -13 24 -30 47 -16 22 -30 47 -30 55 0 7 -4 13 -10 13 -5 0 -10 7 -10 15 0 8
-4 15 -10 15 -5 0 -10 6 -10 14 0 7 -13 30 -30 51 -16 21 -30 42 -30 48 0 5
-8 17 -18 26 -9 9 -26 35 -37 58 -11 24 -23 43 -26 43 -4 0 -10 12 -14 27 -3
14 -15 38 -26 51 -10 14 -19 29 -19 34 0 6 -18 48 -40 94 -22 47 -40 91 -40
99 0 8 -4 15 -10 15 -5 0 -10 10 -10 23 0 12 -11 46 -25 75 -14 30 -25 59 -25
65 0 7 -11 33 -24 60 -14 26 -27 61 -31 77 -4 16 -17 51 -31 77 -13 27 -24 56
-24 66 0 9 -4 17 -10 17 -5 0 -12 16 -16 35 -3 19 -10 38 -15 41 -5 3 -9 14
-9 26 0 11 -9 31 -20 45 -11 14 -20 35 -20 47 -1 11 -9 39 -20 61 -10 22 -16
43 -14 47 3 5 0 8 -5 8 -6 0 -11 3 -11 8 0 4 26 8 58 9 80 4 178 23 199 39 25
19 0 18 -38 -1 -22 -12 -54 -15 -126 -13 -134 4 -135 6 -138 206 -1 124 1 152
13 157 8 3 12 12 8 21 -7 17 33 76 46 68 4 -3 8 3 8 13 0 13 2 15 9 5 6 -10
10 -10 20 2 6 8 22 17 34 20 12 3 33 21 45 40 14 20 29 33 37 30 7 -3 16 0 21
7 4 8 3 10 -4 5 -8 -5 -12 1 -12 14 0 15 5 20 14 17 8 -3 36 5 63 17 99 48
139 65 183 77 57 16 56 14 31 40 -12 13 -21 29 -21 36 0 13 53 39 92 45 27 4
59 28 52 40 -3 4 7 8 23 8 l28 1 -25 13 c-14 8 -28 12 -32 10 -3 -2 -10 5 -13
17 -9 27 -64 89 -79 89 -18 0 -66 24 -66 33 0 4 -7 7 -16 7 -8 0 -22 7 -31 16
-9 8 -21 13 -28 10 -8 -3 -16 2 -19 11 -5 13 -30 14 -172 11 -112 -3 -167 -1
-169 6 -2 6 -6 30 -9 53 -5 42 10 73 36 73 6 0 16 6 22 14 11 14 39 13 232 -9
59 -7 62 -6 92 23 38 37 40 58 7 95 -27 31 -120 66 -174 67 -19 0 -42 7 -51
15 -10 9 -41 15 -85 16 -39 1 -64 4 -57 6 6 3 10 9 6 14 -3 5 -1 9 4 9 9 0 13
29 25 168 2 24 8 47 13 50 5 4 10 22 11 41 1 19 6 37 11 40 4 3 13 29 19 56
13 58 25 106 29 120 2 6 13 51 26 100 12 50 26 92 30 93 5 2 8 20 8 40 0 43
20 104 37 115 7 4 13 21 13 36 0 37 19 91 40 116 10 11 21 31 25 43 4 13 16
33 26 43 10 10 19 29 19 42 1 20 1 21 11 4 10 -17 13 -16 30 13 11 17 17 35
14 41 -10 16 6 33 16 18 8 -12 12 -11 22 2 6 9 24 19 38 22 15 4 46 23 69 42
l42 35 -521 0 c-488 0 -522 -1 -528 -17z m2598 -40 c1 -5 3 -21 5 -37 4 -36
12 -45 24 -26 7 11 10 8 10 -12 0 -16 -6 -28 -12 -29 -8 0 -7 -3 2 -6 29 -12
70 -61 64 -77 -3 -9 -12 -16 -19 -16 -7 0 -15 -6 -18 -12 -3 -7 -4 6 -2 29 3
37 1 42 -21 47 -15 4 -24 14 -24 26 0 18 -10 24 -32 21 -4 0 -10 9 -13 20 -4
11 -19 25 -33 30 l-27 11 24 19 c23 19 70 26 72 12z m324 -23 c3 -5 1 -10 -4
-10 -6 0 -11 5 -11 10 0 6 2 10 4 10 3 0 8 -4 11 -10z m-577 -43 c2 -12 -1
-15 -12 -11 -19 7 -22 38 -3 32 6 -3 13 -12 15 -21z m-2248 7 c0 -3 -6 -12
-14 -20 -11 -11 -16 -11 -19 -1 -3 6 -6 -1 -6 -18 -1 -16 -5 -37 -10 -44 -6
-10 -8 1 -4 30 3 24 11 47 17 51 13 9 36 10 36 2z m2390 -44 c0 -5 -2 -10 -4
-10 -3 0 -8 5 -11 10 -3 6 -1 10 4 10 6 0 11 -4 11 -10z m60 0 c0 -5 -4 -10
-10 -10 -5 0 -10 5 -10 10 0 6 5 10 10 10 6 0 10 -4 10 -10z m38 -32 c-2 -5
-7 -9 -12 -8 -5 1 -12 -4 -17 -11 -13 -21 -22 -3 -10 20 11 20 45 19 39 -1z
m-2589 -40 c-12 -22 -30 -24 -24 -3 16 51 16 50 25 35 5 -8 5 -21 -1 -32z
m3316 -8 c-3 -5 -11 -10 -16 -10 -6 0 -7 5 -4 10 3 6 11 10 16 10 6 0 7 -4 4
-10z m-775 -14 c0 -8 -4 -18 -10 -21 -5 -3 -10 3 -10 14 0 12 5 21 10 21 6 0
10 -6 10 -14z m-2554 -52 c-15 -14 -16 -14 -16 1 0 9 6 22 13 29 10 12 13 12
15 0 2 -8 -4 -21 -12 -30z m3340 -12 c-12 -11 -17 7 -9 34 l8 29 3 -28 c2 -16
1 -31 -2 -35z m-3429 -264 c-3 -8 -6 -5 -6 6 -1 11 2 17 5 13 3 -3 4 -12 1
-19z m-10 -50 c-3 -8 -6 -5 -6 6 -1 11 2 17 5 13 3 -3 4 -12 1 -19z m2260
-470 c-3 -7 -5 -2 -5 12 0 14 2 19 5 13 2 -7 2 -19 0 -25z m113 -382 c0 -15
-14 -35 -21 -30 -15 9 -10 34 6 34 8 0 15 -2 15 -4z m1850 -86 c-12 -22 -14
-23 -59 -14 -17 4 -28 10 -25 15 3 5 9 7 14 4 4 -3 19 -1 32 4 39 16 50 14 38
-9z m-2157 -120 c-12 -14 -20 -17 -28 -9 -7 7 -5 13 5 19 27 18 41 11 23 -10z
m-54 -26 c-14 -18 -24 -11 -15 11 3 9 11 13 16 10 8 -5 7 -11 -1 -21z m897
-56 c10 -15 -24 -38 -57 -38 -21 0 -28 6 -32 26 -2 14 2 31 9 39 12 11 19 11
44 -1 16 -9 33 -20 36 -26z m-2086 -33 c0 -9 -7 -32 -15 -52 -17 -41 -19 -79
-5 -88 6 -3 10 -15 10 -26 0 -18 55 -79 71 -79 5 0 9 -6 9 -13 0 -15 -6 -16
-99 -17 -79 -2 -117 13 -126 48 -3 15 -15 34 -26 43 -19 14 -20 19 -9 75 14
71 38 93 120 110 73 16 70 16 70 -1z m-1169 -38 c-10 -9 -11 -8 -5 6 3 10 9
15 12 12 3 -3 0 -11 -7 -18z m1285 8 c4 -8 10 -12 15 -9 5 3 9 -1 9 -9 0 -7
11 -24 25 -37 13 -12 22 -27 19 -32 -6 -10 -34 15 -34 31 0 6 -13 20 -30 33
-30 22 -39 38 -20 38 6 0 13 -7 16 -15z m1594 -91 c0 -28 -2 -30 -31 -26 l-30
4 7 57 c4 31 12 59 17 63 13 8 37 -54 37 -98z m328 -22 c2 -66 0 -102 -7 -102
-6 0 -9 17 -7 41 4 48 -3 81 -15 74 -4 -3 -6 -12 -2 -20 3 -8 1 -15 -5 -15
-16 0 -34 28 -27 41 4 6 1 16 -6 21 -11 7 -11 11 -1 15 6 2 10 8 7 13 -8 13
25 41 44 38 13 -3 17 -21 19 -106z m-1908 18 c13 -9 13 -11 0 -20 -21 -14 -36
-12 -49 4 -18 22 21 34 49 16z m1483 -64 c-15 -17 -28 -31 -28 -32 0 -1 -15
-4 -32 -7 -46 -9 -41 4 11 32 25 12 47 30 50 38 3 8 11 11 17 8 7 -5 0 -19
-18 -39z m372 14 c3 -11 11 -20 16 -20 5 0 9 -7 9 -15 0 -8 -4 -15 -10 -15 -5
0 -10 5 -10 10 0 6 -7 10 -15 10 -20 0 -39 37 -22 43 21 9 26 7 32 -13z
m-2851 -35 c-4 -8 -8 -15 -10 -15 -2 0 -4 7 -4 15 0 8 4 15 10 15 5 0 7 -7 4
-15z m2426 -29 c0 -3 -4 -8 -10 -11 -5 -3 -10 -1 -10 4 0 6 5 11 10 11 6 0 10
-2 10 -4z m443 -73 c-6 -49 -29 -96 -43 -88 -15 9 -10 103 6 119 31 31 44 20
37 -31z m-3183 6 c0 -6 -4 -7 -10 -4 -5 3 -10 11 -10 16 0 6 5 7 10 4 6 -3 10
-11 10 -16z m3087 -56 c-3 -10 -5 -2 -5 17 0 19 2 27 5 18 2 -10 2 -26 0 -35z
m-3017 -150 c0 -6 -5 -15 -11 -19 -6 -3 -9 -15 -6 -25 3 -10 2 -21 -2 -24 -4
-2 -6 -18 -3 -34 2 -17 8 -29 12 -26 10 6 24 -110 15 -126 -10 -16 -25 8 -25
41 0 14 -8 46 -18 71 -11 30 -16 65 -14 102 4 53 5 56 28 55 13 -1 24 -8 24
-15z m3030 -31 l23 -19 -29 -61 c-20 -42 -36 -64 -51 -68 -13 -3 -23 -12 -23
-20 0 -8 -6 -11 -15 -8 -10 4 -13 2 -10 -8 6 -16 -40 -42 -56 -32 -14 8 33 63
56 64 26 1 53 22 48 38 -3 6 0 12 6 12 12 0 26 31 37 78 l6 27 -26 -30 c-14
-16 -23 -35 -21 -42 2 -7 -2 -25 -10 -40 -8 -15 -15 -22 -15 -15 0 18 -18 14
-22 -5 -3 -17 -4 -17 -11 0 -5 14 -2 20 13 24 19 5 40 55 40 95 0 14 12 25 31
27 4 1 17 -7 29 -17z m-3180 -26 c0 -3 -4 -8 -10 -11 -5 -3 -10 -1 -10 4 0 6
5 11 10 11 6 0 10 -2 10 -4z m188 -56 c-7 -10 -17 -16 -22 -13 -6 4 -5 8 2 11
7 2 12 10 12 18 0 9 4 12 10 9 6 -4 5 -13 -2 -25z m3102 -96 c0 -8 -5 -12 -10
-9 -6 4 -8 11 -5 16 9 14 15 11 15 -7z m-3112 -102 c4 -25 -13 -30 -22 -6 -9
25 -7 36 7 32 6 -3 13 -14 15 -26z m29 -254 c-3 -8 -6 -5 -6 6 -1 11 2 17 5
13 3 -3 4 -12 1 -19z m35 -70 c-7 -7 -12 -23 -12 -36 0 -13 -7 -31 -17 -40
-15 -15 -16 -14 -9 23 4 22 12 42 17 43 5 2 9 13 9 25 0 16 3 18 12 9 9 -9 9
-15 0 -24z m-62 -33 c0 -18 -5 -25 -20 -25 -11 0 -20 5 -20 10 0 6 7 10 15 10
8 0 15 7 15 15 0 8 2 15 5 15 3 0 5 -11 5 -25z m30 -95 c0 -5 -4 -10 -10 -10
-5 0 -10 5 -10 10 0 6 5 10 10 10 6 0 10 -4 10 -10z m4625 -380 c3 -5 -1 -10
-9 -10 -9 0 -16 5 -16 10 0 6 4 10 9 10 6 0 13 -4 16 -10z m104 -299 c12 -8
12 -12 2 -25 -19 -23 -31 -20 -31 9 0 27 6 30 29 16z m39 -77 c17 -5 22 -14
22 -38 0 -52 -43 -75 -77 -41 -13 14 -13 19 1 50 18 37 19 38 54 29z m-101
-10 c-3 -3 -12 -4 -19 -1 -8 3 -5 6 6 6 11 1 17 -2 13 -5z m-4745 -266 c-5
-46 -7 -45 -16 3 -4 26 -3 36 6 36 9 0 12 -12 10 -39z m15 -40 c-3 -7 -5 -2
-5 12 0 14 2 19 5 13 2 -7 2 -19 0 -25z m4890 -254 c-3 -3 -12 -4 -19 -1 -8 3
-5 6 6 6 11 1 17 -2 13 -5z m240 -40 c-3 -3 -12 -4 -19 -1 -8 3 -5 6 6 6 11 1
17 -2 13 -5z m-5297 -25 c0 -6 -4 -7 -10 -4 -5 3 -10 11 -10 16 0 6 5 7 10 4
6 -3 10 -11 10 -16z m5707 -161 c-3 -8 -6 -5 -6 6 -1 11 2 17 5 13 3 -3 4 -12
1 -19z m-189 -92 c3 -16 -1 -18 -27 -14 -28 4 -30 3 -26 -21 3 -14 2 -20 -1
-13 -8 17 -49 15 -68 -4 -9 -8 -16 -13 -16 -11 0 3 -3 12 -6 21 -5 13 1 16 28
16 24 0 41 7 57 26 25 28 54 29 59 0z m22 -46 c0 -5 -4 -10 -10 -10 -5 0 -10
5 -10 10 0 6 5 10 10 10 6 0 10 -4 10 -10z m-5840 -29 c0 -6 -4 -13 -10 -16
-5 -3 -10 1 -10 9 0 9 5 16 10 16 6 0 10 -4 10 -9z m3146 -437 c-4 -9 -9 -15
-11 -12 -3 3 -3 13 1 22 4 9 9 15 11 12 3 -3 3 -13 -1 -22z m24 -53 c0 -31
-15 -71 -26 -71 -20 0 -29 46 -12 64 14 17 38 21 38 7z m-125 -31 c-5 -8 -11
-8 -17 -2 -6 6 -7 16 -3 22 5 8 11 8 17 2 6 -6 7 -16 3 -22z m53 -22 c-4 -27
-28 -36 -28 -10 0 20 8 32 22 32 5 0 8 -10 6 -22z m-68 -23 c0 -16 -6 -25 -15
-25 -16 0 -19 9 -9 34 9 25 24 19 24 -9z m88 -63 c2 -12 7 -20 12 -17 5 3 7
12 3 20 -3 9 1 15 11 15 21 0 21 -47 1 -74 -13 -17 -15 -17 -15 -4 0 25 -16
30 -17 6 -1 -11 -9 -28 -18 -38 -9 -10 -15 -27 -14 -37 5 -31 -11 -62 -42 -84
-22 -15 -29 -27 -25 -41 3 -12 -3 -29 -16 -42 l-21 -21 7 25 c4 14 8 39 10 55
15 124 35 237 45 249 7 8 26 13 44 13 25 -2 33 -7 35 -25z m-694 -7 c-6 -16
-24 -21 -24 -7 0 11 11 22 21 22 5 0 6 -7 3 -15z m646 -270 c0 -14 -7 -28 -16
-32 -8 -3 -13 -11 -10 -18 6 -16 -24 -29 -37 -16 -12 12 0 31 19 31 8 0 17 13
21 30 7 36 23 40 23 5z m-1443 -821 c-3 -3 -12 -4 -19 -1 -8 3 -5 6 6 6 11 1
17 -2 13 -5z m1520 -236 c-17 -68 -18 -107 -3 -158 18 -60 21 -110 7 -110 -5
0 -16 -3 -25 -6 -36 -14 -63 147 -32 191 7 11 17 36 21 55 9 42 13 50 27 50 6
0 8 -10 5 -22z m-1580 -60 c-3 -8 -6 -5 -6 6 -1 11 2 17 5 13 3 -3 4 -12 1
-19z m-252 -238 c3 -5 1 -10 -4 -10 -6 0 -11 5 -11 10 0 6 2 10 4 10 3 0 8 -4
11 -10z m1893 -72 c19 -19 14 -26 -12 -21 -29 6 -44 33 -18 33 10 0 23 -5 30
-12z"/>
<path d="M6088 7148 c-3 -29 -1 -57 4 -62 4 -6 8 1 8 15 0 13 3 41 6 62 4 23
3 37 -4 37 -5 0 -12 -24 -14 -52z"/>
<path d="M5110 7170 c0 -5 5 -10 11 -10 5 0 7 5 4 10 -3 6 -8 10 -11 10 -2 0
-4 -4 -4 -10z"/>
<path d="M5911 7104 c0 -11 3 -14 6 -6 3 7 2 16 -1 19 -3 4 -6 -2 -5 -13z"/>
<path d="M6090 5791 c0 -6 9 -11 20 -11 11 0 20 -4 20 -10 0 -5 5 -10 10 -10
6 0 10 7 10 15 0 8 -6 15 -14 15 -8 0 -21 3 -30 6 -9 3 -16 1 -16 -5z"/>
<path d="M5971 5781 c-18 -11 -1 -21 32 -17 30 3 49 16 24 16 -8 0 -21 2 -29
5 -7 3 -19 1 -27 -4z"/>
<path d="M6065 5780 c3 -5 8 -10 11 -10 2 0 4 5 4 10 0 6 -5 10 -11 10 -5 0
-7 -4 -4 -10z"/>
<path d="M5920 5758 c0 -8 9 -14 20 -14 24 0 21 20 -3 24 -9 2 -17 -3 -17 -10z"/>
<path d="M6096 5758 c5 -8 2 -9 -9 -5 -17 6 -24 -7 -9 -17 10 -6 43 19 35 27
-11 12 -25 8 -17 -5z"/>
<path d="M6344 5723 c1 -26 7 -37 19 -39 12 -2 17 5 17 22 0 14 -4 22 -10 19
-5 -3 -10 3 -10 14 0 12 -4 21 -8 21 -5 0 -8 -16 -8 -37z"/>
<path d="M5980 5738 l-25 -10 23 -11 c19 -9 27 -7 45 11 21 21 21 22 2 21 -11
0 -31 -5 -45 -11z"/>
<path d="M6036 5711 c-4 -7 -5 -15 -2 -18 9 -9 19 4 14 18 -4 11 -6 11 -12 0z"/>
<path d="M6391 5694 c0 -11 3 -14 6 -6 3 7 2 16 -1 19 -3 4 -6 -2 -5 -13z"/>
<path d="M6547 5689 c-15 -17 -15 -20 -2 -25 17 -7 21 -34 5 -34 -6 0 -22 7
-35 16 -13 9 -45 16 -71 16 -62 0 -99 -27 -100 -73 -1 -46 6 -65 17 -47 7 10
9 8 9 -6 0 -13 5 -17 20 -13 11 3 18 1 14 -4 -8 -14 14 -11 47 7 28 14 32 14
43 -2 17 -23 31 -2 16 25 -14 27 -13 48 4 54 9 4 12 0 10 -11 -2 -9 10 -33 26
-52 l30 -34 0 102 c0 56 -3 102 -7 101 -5 0 -16 -9 -26 -20z m-39 -57 c2 -7
-3 -12 -12 -12 -9 0 -16 7 -16 16 0 17 22 14 28 -4z"/>
<path d="M3747 5642 c-26 -2 -45 -7 -42 -13 4 -5 -8 -9 -25 -9 -43 0 -177 -47
-201 -71 -10 -10 -23 -19 -28 -19 -14 0 -54 -40 -77 -75 l-19 -30 37 30 c20
17 37 36 37 43 1 19 137 79 222 98 171 38 201 53 96 46z"/>
<path d="M6230 5604 c-19 -7 -30 -13 -23 -13 6 -1 24 -6 40 -13 47 -19 62 -14
63 23 0 20 -31 21 -80 3z"/>
<path d="M6060 5566 c0 -8 60 -12 72 -4 8 4 -4 8 -29 8 -24 0 -43 -2 -43 -4z"/>
<path d="M1148 5543 c6 -2 18 -2 25 0 6 3 1 5 -13 5 -14 0 -19 -2 -12 -5z"/>
<path d="M6038 5538 c-9 -5 -6 -8 9 -8 12 0 24 4 27 8 7 11 -19 11 -36 0z"/>
<path d="M5998 5533 c7 -3 16 -2 19 1 4 3 -2 6 -13 5 -11 0 -14 -3 -6 -6z"/>
<path d="M1180 5498 c0 -17 30 -19 50 -5 21 15 20 15 -14 14 -20 -1 -36 -5
-36 -9z"/>
<path d="M3332 5383 c-5 -16 -13 -36 -17 -45 -4 -11 -3 -18 4 -18 6 0 11 8 11
18 0 10 7 27 15 38 17 22 19 34 6 34 -5 0 -14 -12 -19 -27z"/>
<path d="M3892 5370 c0 -14 2 -19 5 -12 2 6 2 18 0 25 -3 6 -5 1 -5 -13z"/>
<path d="M3906 5295 c4 -8 10 -15 15 -15 5 0 9 7 9 15 0 8 -7 15 -15 15 -9 0
-12 -6 -9 -15z"/>
<path d="M2847 5251 c-10 -4 -19 -11 -19 -16 0 -6 -5 -20 -11 -32 -7 -15 -7
-33 0 -55 10 -31 11 -31 12 -7 1 19 10 29 34 40 18 8 32 21 32 31 0 9 9 24 20
32 19 15 18 15 -15 15 -19 0 -43 -4 -53 -8z"/>
<path d="M1291 5234 c0 -11 3 -14 6 -6 3 7 2 16 -1 19 -3 4 -6 -2 -5 -13z"/>
<path d="M3275 5240 c3 -5 8 -10 11 -10 2 0 4 5 4 10 0 6 -5 10 -11 10 -5 0
-7 -4 -4 -10z"/>
<path d="M3540 5235 c0 -8 4 -15 10 -15 5 0 7 7 4 15 -4 8 -8 15 -10 15 -2 0
-4 -7 -4 -15z"/>
<path d="M3590 5210 c0 -15 21 -23 32 -12 6 6 2 11 -11 15 -12 3 -21 1 -21 -3z"/>
<path d="M2862 5111 c-10 -16 -11 -26 -3 -34 15 -15 23 -3 19 30 l-3 28 -13
-24z"/>
<path d="M2813 5070 c1 -22 6 -40 11 -40 6 0 5 -5 -2 -12 -7 -7 -12 -19 -12
-27 0 -14 1 -14 10 -1 13 20 12 7 -1 -27 -7 -15 -13 -37 -14 -48 -7 -64 -27
-158 -41 -190 -16 -39 -14 -55 5 -33 35 41 62 95 68 133 3 24 14 53 25 65 16
17 19 32 16 90 -2 54 -6 67 -14 55 -9 -12 -13 -7 -24 26 -18 54 -29 58 -27 9z"/>
<path d="M3340 5100 c0 -5 5 -10 10 -10 6 0 10 5 10 10 0 6 -4 10 -10 10 -5 0
-10 -4 -10 -10z"/>
<path d="M3420 5026 c0 -17 14 -29 23 -20 8 8 -3 34 -14 34 -5 0 -9 -6 -9 -14z"/>
<path d="M3371 5004 c0 -11 3 -14 6 -6 3 7 2 16 -1 19 -3 4 -6 -2 -5 -13z"/>
<path d="M2772 4965 c0 -16 2 -22 5 -12 2 9 2 23 0 30 -3 6 -5 -1 -5 -18z"/>
<path d="M7170 4720 c-9 -6 -11 -10 -3 -10 7 0 10 -7 7 -15 -4 -8 -2 -15 2
-15 5 0 19 -3 32 -6 16 -5 22 -2 22 10 0 9 -7 16 -15 16 -8 0 -15 7 -15 15 0
17 -9 19 -30 5z"/>
<path d="M7191 4665 c0 -5 7 -19 16 -30 12 -15 14 -16 10 -3 -3 9 -3 19 1 21
4 2 2 2 -5 1 -6 -2 -14 2 -17 9 -2 7 -5 8 -5 2z"/>
<path d="M2701 4594 c0 -11 3 -14 6 -6 3 7 2 16 -1 19 -3 4 -6 -2 -5 -13z"/>
<path d="M2670 4565 c-8 -9 -8 -15 -2 -15 12 0 26 19 19 26 -2 2 -10 -2 -17
-11z"/>
<path d="M7130 4554 c0 -8 5 -12 10 -9 6 3 10 10 10 16 0 5 -4 9 -10 9 -5 0
-10 -7 -10 -16z"/>
<path d="M4390 4527 c0 -8 -9 -22 -20 -32 -11 -10 -20 -23 -20 -29 1 -12 60
54 60 66 0 4 -4 8 -10 8 -5 0 -10 -6 -10 -13z"/>
<path d="M2615 4510 c3 -5 8 -10 11 -10 2 0 4 5 4 10 0 6 -5 10 -11 10 -5 0
-7 -4 -4 -10z"/>
<path d="M4095 4510 c3 -5 8 -10 11 -10 2 0 4 5 4 10 0 6 -5 10 -11 10 -5 0
-7 -4 -4 -10z"/>
<path d="M7175 4489 c-37 -21 -44 -29 -28 -29 30 0 40 -20 18 -37 -17 -12 -17
-13 -2 -13 9 0 17 -5 17 -11 0 -5 4 -7 10 -4 6 4 6 -4 0 -21 -8 -20 -8 -29 1
-34 8 -6 8 -9 -2 -12 -11 -4 -11 -17 -3 -67 6 -34 6 -65 2 -67 -5 -3 -8 -55
-7 -115 2 -90 4 -107 15 -98 8 6 11 15 8 20 -3 5 0 9 7 9 8 0 8 4 -1 15 -10
12 -10 15 3 15 13 0 15 17 15 105 0 91 -2 105 -16 105 -15 1 -15 2 1 11 16 9
17 25 16 135 0 68 -2 124 -2 123 -1 -1 -24 -14 -52 -30z"/>
<path d="M2575 4490 c-3 -6 1 -7 9 -4 18 7 21 14 7 14 -6 0 -13 -4 -16 -10z"/>
<path d="M1077 4298 c-4 -40 -9 -82 -12 -93 -3 -11 -1 -26 4 -34 16 -24 58 1
66 41 4 18 12 40 19 50 8 13 7 21 -2 30 -6 6 -12 21 -12 33 0 25 -18 45 -41
45 -13 0 -17 -14 -22 -72z"/>
<path d="M3207 4331 c-14 -5 -11 -11 18 -34 40 -32 46 -33 67 -8 15 17 14 19
-6 29 -31 15 -59 20 -79 13z"/>
<path d="M6091 4213 c-16 -17 -11 -25 8 -14 7 5 12 13 10 19 -2 6 -10 4 -18
-5z"/>
<path d="M6408 4185 c-19 -26 -27 -120 -11 -136 14 -14 49 -7 46 9 -4 16 24
15 30 0 3 -8 6 -6 6 5 1 9 -3 17 -7 17 -14 0 -32 48 -32 85 0 43 -10 49 -32
20z"/>
<path d="M1182 4154 c-2 -12 -64 -41 -97 -46 -18 -3 -20 -12 -23 -76 l-3 -72
60 0 c72 0 74 3 68 125 -1 44 -4 75 -5 69z"/>
<path d="M3966 4141 c-4 -7 -5 -15 -2 -18 9 -9 19 4 14 18 -4 11 -6 11 -12 0z"/>
<path d="M1470 4020 c0 -5 5 -10 10 -10 6 0 10 5 10 10 0 6 -4 10 -10 10 -5 0
-10 -4 -10 -10z"/>
<path d="M6875 3961 c-3 -5 -1 -12 5 -16 5 -3 10 1 10 9 0 18 -6 21 -15 7z"/>
<path d="M6918 3963 c7 -3 16 -2 19 1 4 3 -2 6 -13 5 -11 0 -14 -3 -6 -6z"/>
<path d="M6989 3961 c11 -7 9 -10 -10 -13 -13 -3 5 -2 41 1 36 2 73 5 82 5 9
0 14 4 12 8 -3 4 -35 8 -72 8 -44 0 -62 -3 -53 -9z"/>
<path d="M1447 3913 c3 -7 6 -13 8 -13 2 0 5 6 8 13 3 8 -1 14 -8 14 -7 0 -11
-6 -8 -14z"/>
<path d="M1372 3880 c0 -14 2 -19 5 -12 2 6 2 18 0 25 -3 6 -5 1 -5 -13z"/>
<path d="M6200 3880 c0 -5 5 -10 11 -10 5 0 7 5 4 10 -3 6 -8 10 -11 10 -2 0
-4 -4 -4 -10z"/>
<path d="M1440 3863 c0 -10 4 -24 9 -31 7 -11 9 -11 14 2 7 19 -1 46 -14 46
-5 0 -9 -8 -9 -17z"/>
<path d="M1457 3780 c3 -11 9 -20 14 -20 5 0 9 9 9 20 0 11 -6 20 -14 20 -9 0
-12 -7 -9 -20z"/>
<path d="M3180 3777 c0 -10 -17 -21 -47 -30 l-48 -14 28 -12 c16 -6 34 -8 40
-4 7 4 2 10 -13 14 -23 7 -23 7 7 8 22 1 31 -3 29 -14 -4 -25 -12 -27 -86 -16
-64 9 -73 8 -90 -9 -10 -10 -15 -21 -12 -25 4 -4 0 -6 -8 -5 -8 2 -34 -6 -57
-16 -65 -29 -83 -87 -38 -126 14 -12 25 -32 25 -45 0 -15 6 -23 18 -23 19 0
42 -18 42 -32 0 -4 -12 -8 -26 -8 -22 0 -25 -2 -14 -15 13 -15 8 -19 -22 -16
-50 5 53 -122 136 -167 30 -16 82 -35 117 -43 90 -20 269 -17 342 5 77 24 170
76 182 104 5 12 15 22 22 22 7 0 13 12 13 28 0 15 14 51 30 81 20 37 27 58 20
65 -11 11 15 46 36 46 16 0 64 50 64 67 0 16 -48 64 -85 84 -17 9 -50 17 -74
17 -23 1 -53 8 -66 16 -14 9 -32 16 -42 16 -22 0 -104 28 -119 41 -6 5 -19 7
-28 3 -9 -3 -16 -2 -16 3 0 9 -73 9 -102 -1 -46 -15 -52 -16 -59 -5 -5 9 -12
8 -24 -4 -21 -21 -36 -22 -29 -2 4 8 2 15 -4 15 -6 0 -17 3 -26 6 -10 4 -16 1
-16 -9z m85 -47 c-4 -7 8 -10 32 -9 32 1 134 -10 218 -24 31 -6 30 -35 -2 -49
-15 -7 -31 -17 -35 -23 -4 -5 -8 -6 -8 -1 0 5 -9 1 -20 -9 -11 -10 -23 -15
-27 -12 -3 4 -1 7 5 7 20 0 13 18 -9 25 -13 4 -34 0 -53 -10 -28 -15 -40 -16
-92 -6 -32 7 -97 16 -143 20 -60 5 -87 12 -96 24 -6 9 -14 14 -17 11 -4 -3 -9
-1 -13 5 -6 11 58 16 137 12 27 -2 40 2 44 13 3 9 17 16 29 16 13 0 27 5 30
10 3 6 11 10 16 10 6 0 7 -5 4 -10z m374 -66 c-11 -13 -49 -7 -49 7 0 5 13 8
29 7 22 -2 27 -5 20 -14z m-229 -39 c0 -3 -7 -13 -16 -24 -16 -18 -60 -18 -49
0 3 4 12 6 20 3 8 -4 18 1 21 10 6 14 24 23 24 11z m365 -24 c-3 -6 -14 -11
-23 -11 -15 1 -15 2 2 15 21 16 32 13 21 -4z m-252 -5 c4 -10 0 -12 -14 -9
-10 3 -16 9 -13 14 8 13 21 11 27 -5z m47 6 c0 -5 25 -8 55 -7 63 3 70 -6 22
-23 -46 -16 -77 -15 -77 3 0 8 -4 15 -10 15 -5 0 -10 5 -10 10 0 6 5 10 10 10
6 0 10 -4 10 -8z m10 -57 c0 -2 -9 -9 -20 -15 -16 -9 -18 -8 -14 5 5 13 34 22
34 10z m-300 -39 c-6 -6 -18 -5 -32 2 -22 10 -21 11 9 9 21 -1 29 -5 23 -11z
m107 -2 c2 -6 -4 -14 -14 -16 -24 -6 -63 8 -63 22 0 15 72 9 77 -6z m113 -64
c5 0 11 4 14 8 3 5 22 6 43 3 36 -6 38 -8 35 -41 -5 -52 -12 -70 -28 -70 -8 0
-14 -7 -14 -16 0 -9 -13 -21 -30 -27 -39 -15 -38 -34 1 -29 4 1 9 -7 12 -18 3
-13 -1 -19 -12 -19 -9 0 -28 -3 -43 -7 -39 -9 -64 2 -48 21 10 12 5 14 -32 14
-23 0 -52 1 -63 1 -11 1 -33 1 -50 1 -73 -3 -161 15 -197 40 -14 11 -33 19
-41 19 -9 0 -19 5 -22 10 -3 6 -14 10 -25 10 -14 0 -18 7 -16 30 3 39 19 54
48 47 14 -4 87 -9 164 -12 124 -4 147 -2 211 18 46 14 73 28 74 37 1 11 3 10
6 -2 2 -10 8 -18 13 -18z m220 15 c-28 -34 -71 -58 -83 -46 -8 8 -5 11 11 11
13 0 22 6 22 15 0 9 10 20 23 25 33 13 41 12 27 -5z m-530 -215 c0 -5 -4 -10
-9 -10 -6 0 -13 5 -16 10 -3 6 1 10 9 10 9 0 16 -4 16 -10z m46 -38 c-10 -2
-22 2 -27 10 -7 10 -9 10 -9 0 0 -7 -5 -10 -11 -6 -21 13 13 22 39 11 22 -10
23 -13 8 -15z m124 8 c0 -5 -5 -10 -11 -10 -5 0 -7 5 -4 10 3 6 8 10 11 10 2
0 4 -4 4 -10z m35 0 c3 -5 -1 -10 -10 -10 -9 0 -13 5 -10 10 3 6 8 10 10 10 2
0 7 -4 10 -10z"/>
<path d="M2998 3763 c7 -3 16 -2 19 1 4 3 -2 6 -13 5 -11 0 -14 -3 -6 -6z"/>
<path d="M3036 3752 c-2 -4 11 -6 30 -4 19 2 34 6 34 8 0 8 -59 4 -64 -4z"/>
<path d="M2980 3725 c0 -8 4 -15 9 -15 5 0 14 7 21 15 10 13 9 15 -9 15 -12 0
-21 -6 -21 -15z"/>
<path d="M6540 3380 c-19 -6 -12 -8 30 -8 39 -1 49 2 35 8 -24 10 -33 10 -65
0z"/>
<path d="M4095 3050 c-3 -5 -1 -10 4 -10 6 0 11 5 11 10 0 6 -2 10 -4 10 -3 0
-8 -4 -11 -10z"/>
<path d="M4050 3009 c0 -5 5 -7 10 -4 6 3 10 8 10 11 0 2 -4 4 -10 4 -5 0 -10
-5 -10 -11z"/>
<path d="M1080 2926 c0 -9 7 -16 16 -16 9 0 14 5 12 12 -6 18 -28 21 -28 4z"/>
<path d="M1040 2910 c0 -5 7 -10 15 -10 8 0 15 5 15 10 0 6 -7 10 -15 10 -8 0
-15 -4 -15 -10z"/>
<path d="M1155 2700 c3 -5 10 -10 16 -10 5 0 9 5 9 10 0 6 -7 10 -16 10 -8 0
-12 -4 -9 -10z"/>
<path d="M6995 2660 c-9 -15 -1 -23 21 -18 15 3 16 4 1 16 -11 9 -17 10 -22 2z"/>
<path d="M1085 2650 c-8 -13 4 -32 16 -25 12 8 12 35 0 35 -6 0 -13 -4 -16
-10z"/>
<path d="M7048 2653 c7 -3 16 -2 19 1 4 3 -2 6 -13 5 -11 0 -14 -3 -6 -6z"/>
<path d="M4201 2524 c0 -11 3 -14 6 -6 3 7 2 16 -1 19 -3 4 -6 -2 -5 -13z"/>
<path d="M816 1964 c-4 -9 -4 -19 -1 -22 2 -3 7 3 11 12 4 9 4 19 1 22 -2 3
-7 -3 -11 -12z"/>
<path d="M3860 1420 c0 -5 5 -10 10 -10 6 0 10 5 10 10 0 6 -4 10 -10 10 -5 0
-10 -4 -10 -10z"/>
</g>
</svg>
